# xmcd CD database file
#
# Track frame offsets:
#	150
#	22272
#	44700
#	63970
#	86380
#	106405
#	128700
#	151797
#
# Disc length: 2318 seconds
#
# Revision: 0
# Processed by: cddbd v1.5.1PL0 Copyright (c) Steve Scherf et al.
# Submitted via: CDex 1.51
#
DISCID=62090c08
DTITLE=Fast Eddie - Most Wanted
DYEAR=1989
DGENRE=Hip-House
TTITLE0=Git On Up
TTITLE1=Work Your Body
TTITLE2=Just Buggin'
TTITLE3=I Can't Get That From You
TTITLE4=Most Wanted
TTITLE5=Let's Do This
TTITLE6=That's Bad
TTITLE7=Get U Some More
EXTD=YEAR: 1989
EXTT0=
EXTT1=
EXTT2=
EXTT3=
EXTT4=
EXTT5=
EXTT6=
EXTT7=
PLAYORDER=
